<svg id="my-svg" width="816.3125" xmlns="http://www.w3.org/2000/svg" xmlns:xlink="http://www.w3.org/1999/xlink" height="113.25" viewBox="-6 -6 816.3125 113.25" role="graphics-document document" aria-roledescription="flowchart-v2" style="background-color: white;"><style>#my-svg{font-family:'Noto Sans CJK SC','Microsoft YaHei','PingFang SC','Segoe UI',sans-serif;font-size:13px;fill:#1f2937;}#my-svg .error-icon{fill:#ffffff;}#my-svg .error-text{fill:#000000;stroke:#000000;}#my-svg .edge-thickness-normal{stroke-width:2px;}#my-svg .edge-thickness-thick{stroke-width:3.5px;}#my-svg .edge-pattern-solid{stroke-dasharray:0;}#my-svg .edge-pattern-dashed{stroke-dasharray:3;}#my-svg .edge-pattern-dotted{stroke-dasharray:2;}#my-svg .marker{fill:#9ca3af;stroke:#9ca3af;}#my-svg .marker.cross{stroke:#9ca3af;}#my-svg svg{font-family:'Noto Sans CJK SC','Microsoft YaHei','PingFang SC','Segoe UI',sans-serif;font-size:13px;}#my-svg .label{font-family:'Noto Sans CJK SC','Microsoft YaHei','PingFang SC','Segoe UI',sans-serif;color:#1f2937;}#my-svg .cluster-label text{fill:#000000;}#my-svg .cluster-label span,#my-svg p{color:#000000;}#my-svg .label text,#my-svg span,#my-svg p{fill:#1f2937;color:#1f2937;}#my-svg .node rect,#my-svg .node circle,#my-svg .node ellipse,#my-svg .node polygon,#my-svg .node path{fill:#ffffff;stroke:#9ca3af;stroke-width:1px;}#my-svg .flowchart-label text{text-anchor:middle;}#my-svg .node .katex path{fill:#000;stroke:#000;stroke-width:1px;}#my-svg .node .label{text-align:center;}#my-svg .node.clickable{cursor:pointer;}#my-svg .arrowheadPath{fill:#000000;}#my-svg .edgePath .path{stroke:#9ca3af;stroke-width:2.0px;}#my-svg .flowchart-link{stroke:#9ca3af;fill:none;}#my-svg .edgeLabel{background-color:#ffffff;text-align:center;}#my-svg .edgeLabel rect{opacity:0.5;background-color:#ffffff;fill:#ffffff;}#my-svg .labelBkg{background-color:rgba(255, 255, 255, 0.5);}#my-svg .cluster rect{fill:#fafafa;stroke:#d1d5db;stroke-width:1px;}#my-svg .cluster text{fill:#000000;}#my-svg .cluster span,#my-svg p{color:#000000;}#my-svg div.mermaidTooltip{position:absolute;text-align:center;max-width:200px;padding:2px;font-family:'Noto Sans CJK SC','Microsoft YaHei','PingFang SC','Segoe UI',sans-serif;font-size:12px;background:#ffffff;border:1px solid hsl(0, 0%, 90%);border-radius:2px;pointer-events:none;z-index:100;}#my-svg .flowchartTitleText{text-anchor:middle;font-size:18px;fill:#1f2937;}#my-svg .node rect,#my-svg .node polygon,#my-svg .node circle{stroke-width:1px;}#my-svg .flowchart-link{stroke-width:1px;}#my-svg .edgeLabel text,#my-svg .edgeLabel{font-size:12px;fill:rgb(107, 114, 128);color:rgb(107, 114, 128);}#my-svg .cluster-label text{font-size:12px;fill:rgb(107, 114, 128);}#my-svg .edgeLabel rect{fill:rgb(255, 255, 255)!important;opacity:1!important;}#my-svg .marker{fill:rgb(156, 163, 175)!important;stroke:rgb(156, 163, 175)!important;}#my-svg :root{--mermaid-font-family:"trebuchet ms",verdana,arial,sans-serif;}#my-svg .acc rect{fill:rgb(238, 244, 255)!important;stroke:rgb(124, 159, 220)!important;color:rgb(31, 41, 55)!important;}#my-svg .acc polygon{fill:rgb(238, 244, 255)!important;stroke:rgb(124, 159, 220)!important;color:rgb(31, 41, 55)!important;}#my-svg .acc ellipse{fill:rgb(238, 244, 255)!important;stroke:rgb(124, 159, 220)!important;color:rgb(31, 41, 55)!important;}#my-svg .acc circle{fill:rgb(238, 244, 255)!important;stroke:rgb(124, 159, 220)!important;color:rgb(31, 41, 55)!important;}#my-svg .acc path{fill:rgb(238, 244, 255)!important;stroke:rgb(124, 159, 220)!important;color:rgb(31, 41, 55)!important;}#my-svg .acc tspan{fill:rgb(31, 41, 55)!important;}</style><g><marker id="my-svg_flowchart-pointEnd" class="marker flowchart" viewBox="0 0 10 10" refX="6" refY="5" markerUnits="userSpaceOnUse" markerWidth="8" markerHeight="8" orient="auto"><path d="M 0 0 L 10 5 L 0 10 z" class="arrowMarkerPath" style="stroke-width: 1; stroke-dasharray: 1, 0;"/></marker><marker id="my-svg_flowchart-pointStart" class="marker flowchart" viewBox="0 0 10 10" refX="4.5" refY="5" markerUnits="userSpaceOnUse" markerWidth="8" markerHeight="8" orient="auto"><path d="M 0 5 L 10 10 L 10 0 z" class="arrowMarkerPath" style="stroke-width: 1; stroke-dasharray: 1, 0;"/></marker><marker id="my-svg_flowchart-circleEnd" class="marker flowchart" viewBox="0 0 10 10" refX="11" refY="5" markerUnits="userSpaceOnUse" markerWidth="11" markerHeight="11" orient="auto"><circle cx="5" cy="5" r="5" class="arrowMarkerPath" style="stroke-width: 1; stroke-dasharray: 1, 0;"/></marker><marker id="my-svg_flowchart-circleStart" class="marker flowchart" viewBox="0 0 10 10" refX="-1" refY="5" markerUnits="userSpaceOnUse" markerWidth="11" markerHeight="11" orient="auto"><circle cx="5" cy="5" r="5" class="arrowMarkerPath" style="stroke-width: 1; stroke-dasharray: 1, 0;"/></marker><marker id="my-svg_flowchart-crossEnd" class="marker cross flowchart" viewBox="0 0 11 11" refX="12" refY="5.2" markerUnits="userSpaceOnUse" markerWidth="11" markerHeight="11" orient="auto"><path d="M 1,1 l 9,9 M 10,1 l -9,9" class="arrowMarkerPath" style="stroke-width: 2; stroke-dasharray: 1, 0;"/></marker><marker id="my-svg_flowchart-crossStart" class="marker cross flowchart" viewBox="0 0 11 11" refX="-1" refY="5.2" markerUnits="userSpaceOnUse" markerWidth="11" markerHeight="11" orient="auto"><path d="M 1,1 l 9,9 M 10,1 l -9,9" class="arrowMarkerPath" style="stroke-width: 2; stroke-dasharray: 1, 0;"/></marker><g class="root"><g class="clusters"/><g class="edgePaths"><path d="M83.047,30.925L85.38,29.938C87.714,28.95,92.38,26.975,96.164,25.988C99.947,25,102.847,25,104.297,25L105.747,25" id="L-D-A-0" class="edge-thickness-normal edge-pattern-solid flowchart-link LS-D LE-A" style="fill:none;" marker-end="url(#my-svg_flowchart-pointEnd)"/><path d="M179.141,25L181.474,25C183.807,25,188.474,25,192.257,25C196.041,25,198.941,25,200.391,25L201.841,25" id="L-A-F-0" class="edge-thickness-normal edge-pattern-solid flowchart-link LS-A LE-F" style="fill:none;" marker-end="url(#my-svg_flowchart-pointEnd)"/><path d="M251.156,25L253.49,25C255.823,25,260.49,25,264.273,25C268.056,25,270.956,25,272.406,25L273.856,25" id="L-F-O-0" class="edge-thickness-normal edge-pattern-solid flowchart-link LS-F LE-O" style="fill:none;" marker-end="url(#my-svg_flowchart-pointEnd)"/><path d="M362.172,25L364.505,25C366.839,25,371.505,25,375.377,25.745C379.248,26.49,382.325,27.979,383.863,28.724L385.402,29.469" id="L-O-T-0" class="edge-thickness-normal edge-pattern-solid flowchart-link LS-O LE-T" style="fill:none;" marker-end="url(#my-svg_flowchart-pointEnd)"/><path d="M83.047,66.075L85.38,67.062C87.714,68.05,92.38,70.025,102.721,71.012C113.063,72,129.078,72,145.094,72C161.109,72,177.125,72,191.134,72C205.143,72,217.146,72,229.148,72C241.151,72,253.154,72,268.406,72C283.659,72,302.161,72,320.664,72C339.167,72,357.669,72,368.459,71.255C379.248,70.51,382.325,69.021,383.863,68.276L385.402,67.531" id="L-D-T-0" class="edge-thickness-normal edge-pattern-dotted flowchart-link LS-D LE-T" style="fill:none;stroke-width:2px;stroke-dasharray:3;" marker-end="url(#my-svg_flowchart-pointEnd)"/><path d="M459.25,48.5L461.583,48.5C463.917,48.5,468.583,48.5,472.395,48.882C476.206,49.264,479.162,50.027,480.64,50.409L482.118,50.791" id="L-T-L-0" class="edge-thickness-normal edge-pattern-solid flowchart-link LS-T LE-L" style="fill:none;" marker-end="url(#my-svg_flowchart-pointEnd)"/><path d="M334.132,43.5L341.138,53.125C348.145,62.75,362.158,82,377.255,91.625C392.352,101.25,408.531,101.25,424.711,101.25C440.891,101.25,457.07,101.25,467.506,100.196C477.941,99.141,482.632,97.032,484.977,95.978L487.323,94.923" id="L-O-L-0" class="edge-thickness-normal edge-pattern-solid flowchart-link LS-O LE-L" style="fill:none;" marker-end="url(#my-svg_flowchart-pointEnd)"/><path d="M608.281,67.75L610.615,67.75C612.948,67.75,617.615,67.75,621.398,67.75C625.181,67.75,628.081,67.75,629.531,67.75L630.981,67.75" id="L-L-B-0" class="edge-thickness-normal edge-pattern-solid flowchart-link LS-L LE-B" style="fill:none;" marker-end="url(#my-svg_flowchart-pointEnd)"/><path d="M706.297,67.75L708.63,67.75C710.964,67.75,715.63,67.75,719.414,67.75C723.197,67.75,726.097,67.75,727.547,67.75L728.997,67.75" id="L-B-U-0" class="edge-thickness-normal edge-pattern-solid flowchart-link LS-B LE-U" style="fill:none;" marker-end="url(#my-svg_flowchart-pointEnd)"/></g><g class="edgeLabels"><g class="edgeLabel"><g class="label" transform="translate(0, 0)"><rect style="fill:#ffffff;opacity:1" rx="0" ry="0" width="0" height="0"/><text style=""><tspan xml:space="preserve" dy="1em" x="0" class="row"/></text></g></g><g class="edgeLabel"><g class="label" transform="translate(0, 0)"><rect style="fill:#ffffff;opacity:1" rx="0" ry="0" width="0" height="0"/><text style=""><tspan xml:space="preserve" dy="1em" x="0" class="row"/></text></g></g><g class="edgeLabel"><g class="label" transform="translate(0, 0)"><rect style="fill:#ffffff;opacity:1" rx="0" ry="0" width="0" height="0"/><text style=""><tspan xml:space="preserve" dy="1em" x="0" class="row"/></text></g></g><g class="edgeLabel"><g class="label" transform="translate(0, 0)"><rect style="fill:#ffffff;opacity:1" rx="0" ry="0" width="0" height="0"/><text style=""><tspan xml:space="preserve" dy="1em" x="0" class="row"/></text></g></g><g class="edgeLabel" transform="translate(229.1484375, 72)"><g class="label" transform="translate(-7.6015625, -8.5)"><rect style="fill:#ffffff;opacity:1" rx="0" ry="0" width="15.203125" height="17"/><text style=""><tspan xml:space="preserve" dy="1em" x="0" class="row">GT</tspan></text></g></g><g class="edgeLabel"><g class="label" transform="translate(0, 0)"><rect style="fill:#ffffff;opacity:1" rx="0" ry="0" width="0" height="0"/><text style=""><tspan xml:space="preserve" dy="1em" x="0" class="row"/></text></g></g><g class="edgeLabel"><g class="label" transform="translate(0, 0)"><rect style="fill:#ffffff;opacity:1" rx="0" ry="0" width="0" height="0"/><text style=""><tspan xml:space="preserve" dy="1em" x="0" class="row"/></text></g></g><g class="edgeLabel"><g class="label" transform="translate(0, 0)"><rect style="fill:#ffffff;opacity:1" rx="0" ry="0" width="0" height="0"/><text style=""><tspan xml:space="preserve" dy="1em" x="0" class="row"/></text></g></g><g class="edgeLabel"><g class="label" transform="translate(0, 0)"><rect style="fill:#ffffff;opacity:1" rx="0" ry="0" width="0" height="0"/><text style=""><tspan xml:space="preserve" dy="1em" x="0" class="row"/></text></g></g></g><g class="nodes"><g class="node default default flowchart-label" id="flowchart-D-0" data-node="true" data-id="D" transform="translate(41.5234375, 48.5)"><rect class="basic label-container" style="" rx="0" ry="0" x="-41.5234375" y="-18.5" width="83.046875" height="37"/><g class="label" style="" transform="translate(0, -9.5)"><rect/><text style=""><tspan xml:space="preserve" dy="1em" x="0" class="row">图片 + 标签</tspan></text></g></g><g class="node default default flowchart-label" id="flowchart-A-1" data-node="true" data-id="A" transform="translate(145.09375, 25)"><rect class="basic label-container" style="" rx="0" ry="0" x="-34.046875" y="-25" width="68.09375" height="50"/><g class="label" style="" transform="translate(0, -16)"><rect/><text style=""><tspan xml:space="preserve" dy="1em" x="0" class="row">增强</tspan><tspan xml:space="preserve" dy="1em" x="0" class="row">组 batch</tspan></text></g></g><g class="node default default flowchart-label" id="flowchart-F-3" data-node="true" data-id="F" transform="translate(229.1484375, 25)"><rect class="basic label-container" style="" rx="0" ry="0" x="-22.0078125" y="-18.5" width="44.015625" height="37"/><g class="label" style="" transform="translate(0, -9.5)"><rect/><text style=""><tspan xml:space="preserve" dy="1em" x="0" class="row">前向</tspan></text></g></g><g class="node default default flowchart-label" id="flowchart-O-5" data-node="true" data-id="O" transform="translate(320.6640625, 25)"><rect class="basic label-container" style="" rx="0" ry="0" x="-41.5078125" y="-18.5" width="83.015625" height="37"/><g class="label" style="" transform="translate(0, -9.5)"><rect/><text style=""><tspan xml:space="preserve" dy="1em" x="0" class="row">三尺度输出</tspan></text></g></g><g class="node default acc flowchart-label" id="flowchart-T-7" data-node="true" data-id="T" transform="translate(424.7109375, 48.5)"><rect class="basic label-container" style="" rx="0" ry="0" x="-34.5390625" y="-18.5" width="69.078125" height="37"/><g class="label" style="" transform="translate(0, -9.5)"><rect/><text style=""><tspan xml:space="preserve" dy="1em" x="0" class="row">TAL 分配</tspan></text></g></g><g class="node default acc flowchart-label" id="flowchart-L-11" data-node="true" data-id="L" transform="translate(547.765625, 67.75)"><rect class="basic label-container" style="" rx="0" ry="0" x="-60.515625" y="-25" width="121.03125" height="50"/><g class="label" style="" transform="translate(0, -16)"><rect/><text style=""><tspan xml:space="preserve" dy="1em" x="0" class="row">损失</tspan><tspan xml:space="preserve" dy="1em" x="0" class="row">CIoU、BCE、DFL</tspan></text></g></g><g class="node default default flowchart-label" id="flowchart-B-15" data-node="true" data-id="B" transform="translate(671.2890625, 67.75)"><rect class="basic label-container" style="" rx="0" ry="0" x="-35.0078125" y="-18.5" width="70.015625" height="37"/><g class="label" style="" transform="translate(0, -9.5)"><rect/><text style=""><tspan xml:space="preserve" dy="1em" x="0" class="row">反向传播</tspan></text></g></g><g class="node default default flowchart-label" id="flowchart-U-17" data-node="true" data-id="U" transform="translate(769.3046875, 67.75)"><rect class="basic label-container" style="" rx="0" ry="0" x="-35.0078125" y="-18.5" width="70.015625" height="37"/><g class="label" style="" transform="translate(0, -9.5)"><rect/><text style=""><tspan xml:space="preserve" dy="1em" x="0" class="row">更新权重</tspan></text></g></g></g></g></g></svg>