<svg id="my-svg" width="781.2591552734375" xmlns="http://www.w3.org/2000/svg" xmlns:xlink="http://www.w3.org/1999/xlink" height="106" viewBox="-6 -6 781.2591552734375 106" role="graphics-document document" aria-roledescription="flowchart-v2" style="background-color: white;"><style>#my-svg{font-family:'Noto Sans CJK SC','Microsoft YaHei','PingFang SC','Segoe UI',sans-serif;font-size:13px;fill:#1f2937;}#my-svg .error-icon{fill:#ffffff;}#my-svg .error-text{fill:#000000;stroke:#000000;}#my-svg .edge-thickness-normal{stroke-width:2px;}#my-svg .edge-thickness-thick{stroke-width:3.5px;}#my-svg .edge-pattern-solid{stroke-dasharray:0;}#my-svg .edge-pattern-dashed{stroke-dasharray:3;}#my-svg .edge-pattern-dotted{stroke-dasharray:2;}#my-svg .marker{fill:#9ca3af;stroke:#9ca3af;}#my-svg .marker.cross{stroke:#9ca3af;}#my-svg svg{font-family:'Noto Sans CJK SC','Microsoft YaHei','PingFang SC','Segoe UI',sans-serif;font-size:13px;}#my-svg .label{font-family:'Noto Sans CJK SC','Microsoft YaHei','PingFang SC','Segoe UI',sans-serif;color:#1f2937;}#my-svg .cluster-label text{fill:#000000;}#my-svg .cluster-label span,#my-svg p{color:#000000;}#my-svg .label text,#my-svg span,#my-svg p{fill:#1f2937;color:#1f2937;}#my-svg .node rect,#my-svg .node circle,#my-svg .node ellipse,#my-svg .node polygon,#my-svg .node path{fill:#ffffff;stroke:#9ca3af;stroke-width:1px;}#my-svg .flowchart-label text{text-anchor:middle;}#my-svg .node .katex path{fill:#000;stroke:#000;stroke-width:1px;}#my-svg .node .label{text-align:center;}#my-svg .node.clickable{cursor:pointer;}#my-svg .arrowheadPath{fill:#000000;}#my-svg .edgePath .path{stroke:#9ca3af;stroke-width:2.0px;}#my-svg .flowchart-link{stroke:#9ca3af;fill:none;}#my-svg .edgeLabel{background-color:#ffffff;text-align:center;}#my-svg .edgeLabel rect{opacity:0.5;background-color:#ffffff;fill:#ffffff;}#my-svg .labelBkg{background-color:rgba(255, 255, 255, 0.5);}#my-svg .cluster rect{fill:#fafafa;stroke:#d1d5db;stroke-width:1px;}#my-svg .cluster text{fill:#000000;}#my-svg .cluster span,#my-svg p{color:#000000;}#my-svg div.mermaidTooltip{position:absolute;text-align:center;max-width:200px;padding:2px;font-family:'Noto Sans CJK SC','Microsoft YaHei','PingFang SC','Segoe UI',sans-serif;font-size:12px;background:#ffffff;border:1px solid hsl(0, 0%, 90%);border-radius:2px;pointer-events:none;z-index:100;}#my-svg .flowchartTitleText{text-anchor:middle;font-size:18px;fill:#1f2937;}#my-svg .node rect,#my-svg .node polygon,#my-svg .node circle{stroke-width:1px;}#my-svg .flowchart-link{stroke-width:1px;}#my-svg .edgeLabel text,#my-svg .edgeLabel{font-size:12px;fill:rgb(107, 114, 128);color:rgb(107, 114, 128);}#my-svg .cluster-label text{font-size:12px;fill:rgb(107, 114, 128);}#my-svg .edgeLabel rect{fill:rgb(255, 255, 255)!important;opacity:1!important;}#my-svg .marker{fill:rgb(156, 163, 175)!important;stroke:rgb(156, 163, 175)!important;}#my-svg :root{--mermaid-font-family:"trebuchet ms",verdana,arial,sans-serif;}#my-svg .acc rect{fill:rgb(238, 244, 255)!important;stroke:rgb(124, 159, 220)!important;color:rgb(31, 41, 55)!important;}#my-svg .acc polygon{fill:rgb(238, 244, 255)!important;stroke:rgb(124, 159, 220)!important;color:rgb(31, 41, 55)!important;}#my-svg .acc ellipse{fill:rgb(238, 244, 255)!important;stroke:rgb(124, 159, 220)!important;color:rgb(31, 41, 55)!important;}#my-svg .acc circle{fill:rgb(238, 244, 255)!important;stroke:rgb(124, 159, 220)!important;color:rgb(31, 41, 55)!important;}#my-svg .acc path{fill:rgb(238, 244, 255)!important;stroke:rgb(124, 159, 220)!important;color:rgb(31, 41, 55)!important;}#my-svg .acc tspan{fill:rgb(31, 41, 55)!important;}</style><g><marker id="my-svg_flowchart-pointEnd" class="marker flowchart" viewBox="0 0 10 10" refX="6" refY="5" markerUnits="userSpaceOnUse" markerWidth="8" markerHeight="8" orient="auto"><path d="M 0 0 L 10 5 L 0 10 z" class="arrowMarkerPath" style="stroke-width: 1; stroke-dasharray: 1, 0;"/></marker><marker id="my-svg_flowchart-pointStart" class="marker flowchart" viewBox="0 0 10 10" refX="4.5" refY="5" markerUnits="userSpaceOnUse" markerWidth="8" markerHeight="8" orient="auto"><path d="M 0 5 L 10 10 L 10 0 z" class="arrowMarkerPath" style="stroke-width: 1; stroke-dasharray: 1, 0;"/></marker><marker id="my-svg_flowchart-circleEnd" class="marker flowchart" viewBox="0 0 10 10" refX="11" refY="5" markerUnits="userSpaceOnUse" markerWidth="11" markerHeight="11" orient="auto"><circle cx="5" cy="5" r="5" class="arrowMarkerPath" style="stroke-width: 1; stroke-dasharray: 1, 0;"/></marker><marker id="my-svg_flowchart-circleStart" class="marker flowchart" viewBox="0 0 10 10" refX="-1" refY="5" markerUnits="userSpaceOnUse" markerWidth="11" markerHeight="11" orient="auto"><circle cx="5" cy="5" r="5" class="arrowMarkerPath" style="stroke-width: 1; stroke-dasharray: 1, 0;"/></marker><marker id="my-svg_flowchart-crossEnd" class="marker cross flowchart" viewBox="0 0 11 11" refX="12" refY="5.2" markerUnits="userSpaceOnUse" markerWidth="11" markerHeight="11" orient="auto"><path d="M 1,1 l 9,9 M 10,1 l -9,9" class="arrowMarkerPath" style="stroke-width: 2; stroke-dasharray: 1, 0;"/></marker><marker id="my-svg_flowchart-crossStart" class="marker cross flowchart" viewBox="0 0 11 11" refX="-1" refY="5.2" markerUnits="userSpaceOnUse" markerWidth="11" markerHeight="11" orient="auto"><path d="M 1,1 l 9,9 M 10,1 l -9,9" class="arrowMarkerPath" style="stroke-width: 2; stroke-dasharray: 1, 0;"/></marker><g class="root"><g class="clusters"/><g class="edgePaths"><path d="M44.016,47L46.349,47C48.682,47,53.349,47,57.132,47C60.916,47,63.816,47,65.266,47L66.716,47" id="L-I-P-0" class="edge-thickness-normal edge-pattern-solid flowchart-link LS-I LE-P" style="fill:none;" marker-end="url(#my-svg_flowchart-pointEnd)"/><path d="M148.197,47L150.53,47C152.863,47,157.53,47,161.313,47C165.097,47,167.997,47,169.447,47L170.897,47" id="L-P-F-0" class="edge-thickness-normal edge-pattern-solid flowchart-link LS-P LE-F" style="fill:none;" marker-end="url(#my-svg_flowchart-pointEnd)"/><path d="M220.212,29.581L222.546,27.734C224.879,25.887,229.546,22.194,234.36,20.347C239.175,18.5,244.137,18.5,246.619,18.5L249.1,18.5" id="L-F-D-0" class="edge-thickness-normal edge-pattern-solid flowchart-link LS-F LE-D" style="fill:none;" marker-end="url(#my-svg_flowchart-pointEnd)"/><path d="M220.212,64.419L222.546,66.266C224.879,68.113,229.546,71.806,233.329,73.653C237.112,75.5,240.012,75.5,241.462,75.5L242.912,75.5" id="L-F-S-0" class="edge-thickness-normal edge-pattern-solid flowchart-link LS-F LE-S" style="fill:none;" marker-end="url(#my-svg_flowchart-pointEnd)"/><path d="M337.494,18.5L340.858,18.5C344.223,18.5,350.952,18.5,356.928,19.778C362.904,21.057,368.126,23.613,370.737,24.891L373.348,26.17" id="L-D-C-0" class="edge-thickness-normal edge-pattern-solid flowchart-link LS-D LE-C" style="fill:none;" marker-end="url(#my-svg_flowchart-pointEnd)"/><path d="M343.681,75.5L346.014,75.5C348.348,75.5,353.014,75.5,357.959,74.222C362.904,72.943,368.126,70.387,370.737,69.109L373.348,67.83" id="L-S-C-0" class="edge-thickness-normal edge-pattern-solid flowchart-link LS-S LE-C" style="fill:none;" marker-end="url(#my-svg_flowchart-pointEnd)"/><path d="M460.119,47L462.452,47C464.785,47,469.452,47,473.235,47C477.019,47,479.919,47,481.369,47L482.819,47" id="L-C-N-0" class="edge-thickness-normal edge-pattern-solid flowchart-link LS-C LE-N" style="fill:none;" marker-end="url(#my-svg_flowchart-pointEnd)"/><path d="M548.15,47L550.483,47C552.816,47,557.483,47,561.266,47C565.05,47,567.95,47,569.4,47L570.85,47" id="L-N-R-0" class="edge-thickness-normal edge-pattern-solid flowchart-link LS-N LE-R" style="fill:none;" marker-end="url(#my-svg_flowchart-pointEnd)"/><path d="M659.165,47L661.499,47C663.832,47,668.499,47,672.282,47C676.065,47,678.965,47,680.415,47L681.865,47" id="L-R-O-0" class="edge-thickness-normal edge-pattern-solid flowchart-link LS-R LE-O" style="fill:none;" marker-end="url(#my-svg_flowchart-pointEnd)"/></g><g class="edgeLabels"><g class="edgeLabel"><g class="label" transform="translate(0, 0)"><rect style="fill:#ffffff;opacity:1" rx="0" ry="0" width="0" height="0"/><text style=""><tspan xml:space="preserve" dy="1em" x="0" class="row"/></text></g></g><g class="edgeLabel"><g class="label" transform="translate(0, 0)"><rect style="fill:#ffffff;opacity:1" rx="0" ry="0" width="0" height="0"/><text style=""><tspan xml:space="preserve" dy="1em" x="0" class="row"/></text></g></g><g class="edgeLabel"><g class="label" transform="translate(0, 0)"><rect style="fill:#ffffff;opacity:1" rx="0" ry="0" width="0" height="0"/><text style=""><tspan xml:space="preserve" dy="1em" x="0" class="row"/></text></g></g><g class="edgeLabel"><g class="label" transform="translate(0, 0)"><rect style="fill:#ffffff;opacity:1" rx="0" ry="0" width="0" height="0"/><text style=""><tspan xml:space="preserve" dy="1em" x="0" class="row"/></text></g></g><g class="edgeLabel"><g class="label" transform="translate(0, 0)"><rect style="fill:#ffffff;opacity:1" rx="0" ry="0" width="0" height="0"/><text style=""><tspan xml:space="preserve" dy="1em" x="0" class="row"/></text></g></g><g class="edgeLabel"><g class="label" transform="translate(0, 0)"><rect style="fill:#ffffff;opacity:1" rx="0" ry="0" width="0" height="0"/><text style=""><tspan xml:space="preserve" dy="1em" x="0" class="row"/></text></g></g><g class="edgeLabel"><g class="label" transform="translate(0, 0)"><rect style="fill:#ffffff;opacity:1" rx="0" ry="0" width="0" height="0"/><text style=""><tspan xml:space="preserve" dy="1em" x="0" class="row"/></text></g></g><g class="edgeLabel"><g class="label" transform="translate(0, 0)"><rect style="fill:#ffffff;opacity:1" rx="0" ry="0" width="0" height="0"/><text style=""><tspan xml:space="preserve" dy="1em" x="0" class="row"/></text></g></g><g class="edgeLabel"><g class="label" transform="translate(0, 0)"><rect style="fill:#ffffff;opacity:1" rx="0" ry="0" width="0" height="0"/><text style=""><tspan xml:space="preserve" dy="1em" x="0" class="row"/></text></g></g></g><g class="nodes"><g class="node default default flowchart-label" id="flowchart-I-0" data-node="true" data-id="I" transform="translate(22.0078125, 47)"><rect class="basic label-container" style="" rx="0" ry="0" x="-22.0078125" y="-18.5" width="44.015625" height="37"/><g class="label" style="" transform="translate(0, -9.5)"><rect/><text style=""><tspan xml:space="preserve" dy="1em" x="0" class="row">图片</tspan></text></g></g><g class="node default default flowchart-label" id="flowchart-P-1" data-node="true" data-id="P" transform="translate(110.10614776611328, 47)"><rect class="basic label-container" style="" rx="0" ry="0" x="-38.09052276611328" y="-18.5" width="76.18104553222656" height="37"/><g class="label" style="" transform="translate(0, -9.5)"><rect/><text style=""><tspan xml:space="preserve" dy="1em" x="0" class="row">Letterbox</tspan></text></g></g><g class="node default default flowchart-label" id="flowchart-F-3" data-node="true" data-id="F" transform="translate(198.20448303222656, 47)"><rect class="basic label-container" style="" rx="0" ry="0" x="-22.0078125" y="-18.5" width="44.015625" height="37"/><g class="label" style="" transform="translate(0, -9.5)"><rect/><text style=""><tspan xml:space="preserve" dy="1em" x="0" class="row">前向</tspan></text></g></g><g class="node default default flowchart-label" id="flowchart-D-5" data-node="true" data-id="D" transform="translate(295.94667053222656, 18.5)"><rect class="basic label-container" style="" rx="0" ry="0" x="-41.546875" y="-18.5" width="83.09375" height="37"/><g class="label" style="" transform="translate(0, -9.5)"><rect/><text style=""><tspan xml:space="preserve" dy="1em" x="0" class="row">DFL 解码框</tspan></text></g></g><g class="node default default flowchart-label" id="flowchart-S-7" data-node="true" data-id="S" transform="translate(295.94667053222656, 75.5)"><rect class="basic label-container" style="" rx="0" ry="0" x="-47.734375" y="-18.5" width="95.46875" height="37"/><g class="label" style="" transform="translate(0, -9.5)"><rect/><text style=""><tspan xml:space="preserve" dy="1em" x="0" class="row">sigmoid 类别</tspan></text></g></g><g class="node default acc flowchart-label" id="flowchart-C-9" data-node="true" data-id="C" transform="translate(415.89979553222656, 47)"><rect class="basic label-container" style="" rx="0" ry="0" x="-44.21875" y="-18.5" width="88.4375" height="37"/><g class="label" style="" transform="translate(0, -9.5)"><rect/><text style=""><tspan xml:space="preserve" dy="1em" x="0" class="row">conf ≥ 0.25</tspan></text></g></g><g class="node default acc flowchart-label" id="flowchart-N-13" data-node="true" data-id="N" transform="translate(518.1341705322266, 47)"><rect class="basic label-container" style="" rx="0" ry="0" x="-30.015625" y="-25" width="60.03125" height="50"/><g class="label" style="" transform="translate(0, -16)"><rect/><text style=""><tspan xml:space="preserve" dy="1em" x="0" class="row">NMS</tspan><tspan xml:space="preserve" dy="1em" x="0" class="row">IoU 0.7</tspan></text></g></g><g class="node default default flowchart-label" id="flowchart-R-15" data-node="true" data-id="R" transform="translate(617.6576080322266, 47)"><rect class="basic label-container" style="" rx="0" ry="0" x="-41.5078125" y="-18.5" width="83.015625" height="37"/><g class="label" style="" transform="translate(0, -9.5)"><rect/><text style=""><tspan xml:space="preserve" dy="1em" x="0" class="row">映射回原图</tspan></text></g></g><g class="node default default flowchart-label" id="flowchart-O-17" data-node="true" data-id="O" transform="translate(728.2122955322266, 47)"><rect class="basic label-container" style="" rx="0" ry="0" x="-41.046875" y="-25" width="82.09375" height="50"/><g class="label" style="" transform="translate(0, -16)"><rect/><text style=""><tspan xml:space="preserve" dy="1em" x="0" class="row">x1 y1 x2 y2</tspan><tspan xml:space="preserve" dy="1em" x="0" class="row">conf cls</tspan></text></g></g></g></g></g></svg>